<?xml version="1.0" standalone="no"?>
<!DOCTYPE svg PUBLIC "-//W3C//DTD SVG 20010904//EN"
 "http://www.w3.org/TR/2001/REC-SVG-20010904/DTD/svg10.dtd">
<svg version="1.0" xmlns="http://www.w3.org/2000/svg"
 width="200.000000pt" height="200.000000pt" viewBox="0 0 200.000000 200.000000"
 preserveAspectRatio="xMidYMid meet">

<g transform="translate(0.000000,200.000000) scale(0.100000,-0.100000)"
fill="#000000" stroke="none">
<path d="M1645 1918 c-199 -6 -858 -24 -1249 -33 -126 -3 -230 -6 -231 -8 -2
-1 -5 -407 -9 -902 -4 -495 -9 -917 -12 -937 l-6 -38 136 0 c75 0 136 1 136 3
0 1 -7 23 -14 48 -19 62 -32 254 -17 245 7 -4 11 1 11 13 0 10 3 27 6 36 6 13
9 14 16 3 7 -9 8 -5 5 14 -2 16 0 28 4 28 5 0 9 -12 10 -27 0 -27 1 -27 9 -6
5 13 13 23 18 23 5 0 13 15 17 33 6 28 8 30 15 12 7 -16 9 -14 9 14 1 29 3 32
16 21 8 -7 15 -20 16 -29 0 -11 3 -10 11 7 17 35 26 27 45 -40 11 -39 19 -55
21 -43 10 53 45 138 73 180 36 53 138 157 149 150 4 -2 22 6 41 19 45 29 93
32 136 6 19 -11 40 -20 47 -20 7 0 21 -9 31 -20 10 -11 26 -20 36 -20 12 0 21
-10 26 -28 7 -31 43 -93 43 -75 0 6 -13 46 -29 87 -18 47 -25 76 -18 79 16 5
-92 46 -159 61 -95 21 -158 38 -176 47 -10 5 -31 9 -46 9 -36 0 -45 9 -30 27
9 11 9 17 -3 25 -11 8 -11 9 3 5 24 -8 50 26 46 60 -3 25 -8 28 -42 31 -21 2
-43 -1 -49 -7 -6 -6 -15 -11 -19 -11 -12 0 -44 71 -56 125 -6 28 -16 71 -22
97 -5 26 -10 58 -10 72 0 14 -4 26 -9 26 -6 0 -9 -10 -9 -22 1 -13 0 -43 -2
-68 l-3 -45 -7 40 c-6 36 -7 37 -9 10 -3 -42 -8 -61 -19 -80 -7 -13 -11 4 -14
63 -3 54 -10 89 -23 108 -17 26 -17 27 1 20 40 -15 75 -18 88 -7 8 7 24 42 36
78 36 111 121 222 188 244 64 21 146 66 176 98 16 17 32 28 36 26 3 -2 22 0
41 5 110 28 108 28 102 14 -3 -8 -1 -14 5 -14 5 0 13 7 16 16 3 8 10 13 15 9
5 -3 12 -1 16 5 3 5 11 10 16 10 6 0 7 -5 3 -11 -8 -13 35 -3 50 12 17 16 29
10 15 -8 -10 -11 -10 -14 -1 -9 7 4 12 2 12 -4 0 -7 7 -10 15 -6 8 3 15 4 15
3 0 -1 -4 -17 -9 -35 -9 -30 -8 -31 11 -21 24 13 35 5 19 -14 -8 -11 -7 -20 9
-40 11 -14 20 -30 20 -35 0 -6 7 -18 16 -26 11 -11 12 -16 3 -16 -10 0 -10 -3
-1 -12 7 -7 12 -20 12 -30 0 -10 4 -26 9 -36 5 -9 12 -25 15 -34 7 -22 26 -24
26 -3 0 8 5 15 10 15 6 0 10 -7 10 -15 0 -9 6 -12 16 -8 10 4 14 14 11 30 -9
47 18 16 29 -33 8 -38 12 -44 17 -29 4 11 16 43 26 70 19 48 19 49 20 17 1
-18 5 -31 10 -28 5 3 11 -4 15 -16 9 -37 26 -8 28 51 3 53 20 85 31 57 4 -9 2
-18 -3 -21 -6 -4 -10 -12 -10 -18 0 -7 4 -6 10 3 8 12 10 10 10 -10 0 -19 2
-22 10 -10 8 13 25 8 25 -8 0 -4 8 -29 19 -55 12 -33 23 -47 32 -43 10 4 14
-3 14 -23 0 -38 10 -62 22 -55 5 3 8 -1 6 -9 -2 -9 2 -16 7 -17 6 0 12 10 15
22 2 13 8 -8 11 -47 4 -38 5 72 2 245 -3 173 -8 333 -12 355 l-6 40 -190 -7z
m-1074 -151 c-6 -8 -7 -17 -3 -21 4 -4 3 -6 -3 -4 -11 3 -56 -38 -49 -44 2 -3
-3 -5 -11 -5 -10 0 0 16 27 44 40 41 63 58 39 30z m1016 -89 c-3 -8 -6 -5 -6
6 -1 11 2 17 5 13 3 -3 4 -12 1 -19z m39 -23 c-1 -8 -8 -21 -16 -28 -7 -6 -11
-7 -8 -2 3 6 8 18 11 28 8 21 16 23 13 2z m69 -53 c-3 -3 -11 0 -18 7 -9 10
-8 11 6 5 10 -3 15 -9 12 -12z m-70 -32 c-3 -5 -10 -10 -16 -10 -5 0 -9 5 -9
10 0 6 7 10 16 10 8 0 12 -4 9 -10z m-1218 -632 c-2 -13 -4 -3 -4 22 0 25 2
35 4 23 2 -13 2 -33 0 -45z m47 6 c3 -8 2 -12 -4 -9 -6 3 -10 10 -10 16 0 14
7 11 14 -7z m257 -20 c-11 -15 -21 -21 -21 -14 0 15 31 52 38 46 2 -3 -5 -17
-17 -32z m-201 -5 c0 -6 8 -27 18 -48 18 -37 18 -39 0 -61 -10 -12 -18 -18
-18 -14 0 5 -5 2 -10 -6 -8 -12 -10 -10 -10 10 0 14 -3 36 -5 50 -5 23 -5 23
4 4 27 -62 43 -21 16 43 -18 42 -18 46 -5 38 6 -3 10 -11 10 -16z m260 -179
c0 -5 -5 -10 -11 -10 -5 0 -7 5 -4 10 3 6 8 10 11 10 2 0 4 -4 4 -10z"/>
<path d="M1312 1681 c-10 -6 -10 -10 3 -21 13 -11 15 -9 15 9 0 24 0 24 -18
12z"/>
<path d="M1316 1551 c4 -17 3 -21 -6 -16 -9 5 -10 -18 -4 -99 4 -71 3 -106 -4
-106 -5 0 -8 -9 -5 -20 7 -26 -1 -25 -41 5 -62 47 -62 47 -43 -154 10 -107 14
-122 26 -108 7 9 14 31 16 49 2 25 8 34 24 36 11 2 21 1 21 -1 0 -15 -25 -75
-38 -89 -9 -11 -10 -18 -4 -18 6 0 14 5 17 10 4 6 10 8 15 5 10 -6 30 48 30
81 0 12 4 24 10 26 6 2 3 23 -6 53 -18 58 -20 114 -3 129 8 8 10 -1 4 -38 -5
-35 -3 -47 5 -44 8 2 14 35 16 93 4 114 -4 189 -23 212 -13 17 -14 16 -7 -6z"/>
<path d="M903 1093 c-13 -2 -23 -11 -23 -18 0 -17 38 -45 62 -45 22 0 48 27
48 51 0 15 -7 19 -32 18 -18 -1 -43 -4 -55 -6z"/>
<path d="M1064 1087 c-3 -9 -3 -21 1 -26 12 -20 -55 -110 -83 -111 -4 0 -15
-3 -25 -6 -19 -6 -92 14 -83 23 10 10 -25 64 -36 57 -8 -5 -9 -2 -5 9 4 10 2
17 -4 17 -6 0 -9 7 -5 15 3 9 0 15 -9 15 -18 0 -18 2 0 -50 8 -23 29 -58 45
-77 17 -19 29 -40 27 -46 -7 -21 53 -48 121 -56 80 -10 118 -2 114 23 -2 12 1
15 9 10 7 -4 10 -3 6 3 -9 14 11 29 50 37 17 4 34 14 37 23 6 14 9 14 27 -3
19 -17 22 -17 30 -3 5 11 18 15 36 13 25 -3 24 -3 -4 6 -18 6 -32 14 -30 18 2
6 -8 13 -15 11 -11 -3 -42 -7 -100 -13 -37 -3 -85 -13 -107 -21 -23 -8 -41
-12 -41 -10 0 2 11 16 25 30 14 16 27 45 31 71 6 46 0 70 -12 41z m-97 -173
c-3 -3 -12 -4 -19 -1 -8 3 -5 6 6 6 11 1 17 -2 13 -5z m150 -50 c-3 -3 -12 -4
-19 -1 -8 3 -5 6 6 6 11 1 17 -2 13 -5z"/>
<path d="M1374 933 c3 -3 -7 -22 -23 -42 -15 -20 -36 -52 -46 -71 -9 -19 -28
-50 -42 -67 -18 -25 -20 -33 -9 -33 17 0 56 46 56 66 0 23 101 116 121 111 23
-6 50 10 29 17 -36 12 -92 25 -86 19z"/>
<path d="M1392 827 c-22 -17 -49 -39 -61 -47 -37 -25 -23 -32 19 -9 22 13 40
26 40 31 0 4 8 8 19 8 10 0 25 7 32 17 13 15 12 15 -8 4 -13 -7 -23 -8 -23 -2
0 12 37 24 49 16 5 -3 12 -2 15 3 2 4 -6 9 -19 10 -14 1 -40 -12 -63 -31z"/>
<path d="M1873 495 c0 -8 4 -12 9 -9 4 3 8 9 8 15 0 5 -4 9 -8 9 -5 0 -9 -7
-9 -15z"/>
<path d="M1819 472 c-1 -30 -9 -170 -11 -189 -1 -7 -5 -10 -10 -7 -4 3 -8 27
-8 55 0 36 -4 49 -14 49 -8 0 -18 -4 -21 -10 -3 -5 -1 -10 4 -10 6 0 11 -14
11 -31 0 -24 -4 -30 -15 -25 -12 4 -14 0 -9 -21 5 -20 4 -24 -6 -18 -9 5 -11
4 -6 -4 4 -6 2 -20 -5 -29 -7 -9 -10 -14 -5 -10 5 4 15 0 24 -8 13 -14 13 -17
1 -25 -12 -8 -12 -10 1 -19 8 -5 24 -10 35 -11 13 -1 10 -4 -10 -9 l-30 -7 28
-11 c17 -7 25 -16 21 -24 -5 -8 0 -9 14 -6 12 4 22 3 22 -1 0 -4 14 -23 30
-41 32 -36 66 -50 56 -23 -4 9 -9 90 -12 182 -5 124 -10 169 -20 177 -17 14
-18 27 -1 19 6 -4 3 1 -7 9 -17 14 -18 16 -3 16 9 0 17 4 17 10 0 5 -7 7 -16
3 -10 -4 -17 1 -21 15 -8 33 -33 36 -34 4z m-16 -257 c-3 -9 -8 -14 -10 -11
-3 3 -2 9 2 15 9 16 15 13 8 -4z m-16 -41 c-3 -3 -12 -4 -19 -1 -8 3 -5 6 6 6
11 1 17 -2 13 -5z"/>
<path d="M1158 423 c7 -3 16 -2 19 1 4 3 -2 6 -13 5 -11 0 -14 -3 -6 -6z"/>
<path d="M1133 336 c-11 -7 -19 -24 -20 -46 l-1 -35 24 30 c38 45 45 62 29 62
-7 0 -21 -5 -32 -11z m27 0 c0 -2 -8 -10 -17 -17 -16 -13 -17 -12 -4 4 13 16
21 21 21 13z"/>
<path d="M920 303 c0 -21 3 -24 9 -14 5 8 7 20 4 28 -8 21 -13 15 -13 -14z"/>
<path d="M535 279 c-2 -8 -7 -50 -9 -94 -3 -44 -5 -83 -5 -87 -3 -35 -61 51
-61 90 0 11 -7 26 -17 33 -15 13 -16 8 -11 -56 5 -62 9 -72 38 -98 62 -56 96
-11 92 122 -2 80 -15 123 -27 90z"/>
<path d="M1220 254 c-19 -14 -52 -30 -72 -36 -21 -6 -38 -13 -38 -15 0 -3 18
-22 40 -43 41 -39 48 -54 30 -65 -6 -3 -8 2 -5 12 3 10 0 8 -6 -4 -7 -13 -16
-23 -22 -23 -5 0 -7 -6 -4 -13 3 -9 -2 -13 -15 -13 -12 1 -23 -5 -25 -11 -3
-9 5 -12 26 -9 33 4 38 -3 19 -22 -9 -9 56 -12 293 -12 289 1 303 2 281 18
-13 9 -38 29 -55 43 -18 14 -61 38 -97 53 -36 16 -73 32 -82 37 -10 5 -49 9
-88 9 -40 0 -70 4 -70 10 0 6 12 10 28 10 24 1 25 2 9 11 -24 14 -98 1 -114
-20 -7 -9 -13 -11 -13 -5 0 6 7 17 15 24 16 13 18 43 7 71 -6 15 -11 14 -42
-7z"/>
<path d="M948 217 c-3 -19 -2 -25 4 -19 6 6 8 18 6 28 -3 14 -5 12 -10 -9z"/>
<path d="M1409 207 c5 -5 24 -7 42 -5 33 3 33 4 -8 8 -23 3 -39 2 -34 -3z"/>
<path d="M829 113 l-34 -38 38 34 c20 19 37 36 37 38 0 8 -8 0 -41 -34z"/>
<path d="M1660 126 c0 -2 7 -9 15 -16 13 -11 14 -10 9 4 -5 14 -24 23 -24 12z"/>
<path d="M1760 110 c0 -5 5 -10 11 -10 5 0 7 5 4 10 -3 6 -8 10 -11 10 -2 0
-4 -4 -4 -10z"/>
<path d="M1725 80 c3 -5 13 -10 21 -10 7 0 31 -16 53 -35 27 -25 48 -35 71
-35 26 0 30 3 21 13 -24 30 -182 94 -166 67z"/>
<path d="M754 65 c-10 -8 -14 -14 -9 -14 6 0 19 6 29 14 11 8 15 15 10 15 -6
0 -19 -7 -30 -15z"/>
<path d="M953 40 c0 -25 2 -35 4 -22 2 12 2 32 0 45 -2 12 -4 2 -4 -23z"/>
<path d="M665 25 c-27 -13 -44 -24 -37 -24 15 -1 102 37 102 44 0 8 -13 4 -65
-20z"/>
<path d="M868 3 c7 -3 16 -2 19 1 4 3 -2 6 -13 5 -11 0 -14 -3 -6 -6z"/>
</g>
</svg>
